<svg width="4096" height="1291" viewBox="0 0 4096 1291" fill="none" xmlns="http://www.w3.org/2000/svg">
<path d="M1750.21 978.943L1517.45 356.713C1500.46 310.933 1457.99 281 1410.99 281C1363.42 281 1320.94 311.52 1303.95 357.299L1071.14 981.567C1067.74 988.023 1066.53 998.423 1072.6 1004.85C1078.66 1011.27 1086.68 1009.36 1091.77 1009.36H1214.89C1221.52 1009.36 1235.09 1004.07 1240.52 999.653C1245.96 995.236 1250.37 987.017 1252.12 981.567C1257.79 965.134 1260.92 957.713 1267.14 941.28C1273.37 924.846 1279.04 908.413 1285.27 891.392L1337.93 734.686C1344.16 717.665 1349.83 699.471 1356.05 680.69C1362.28 661.908 1368.51 642.54 1374.18 622.585C1380.41 603.217 1386.64 583.262 1392.3 564.48C1398.53 545.112 1404.76 526.918 1410.99 510.484L1482.91 734.686L1536.71 891.392C1542.37 908.413 1548.6 924.846 1554.26 941.28C1560.49 957.713 1562.75 965.134 1568.98 981.567C1571.25 988.023 1573.77 992.834 1584.09 999.814C1594.41 1006.79 1609.97 1009.36 1617.33 1009.36H1725.77C1734.27 1009.36 1745.33 1009.36 1750.21 1000.75C1755.1 992.149 1752.48 985.399 1750.21 978.943Z" fill="#008041"/>
<path d="M3755.32 978.943L3522.56 356.713C3505.57 310.933 3463.1 281 3416.1 281C3368.53 281 3326.05 311.52 3309.06 357.299L3076.25 981.567C3072.85 988.024 3071.64 998.423 3077.7 1004.85C3083.77 1011.27 3091.79 1009.36 3096.88 1009.36H3220C3226.63 1009.36 3240.19 1004.07 3245.63 999.653C3251.06 995.236 3255.48 987.017 3257.23 981.567C3262.89 965.134 3266.02 957.713 3272.25 941.28C3278.48 924.846 3284.15 908.413 3290.38 891.392L3343.04 734.686C3349.27 717.665 3354.93 699.471 3361.16 680.69C3367.39 661.908 3373.62 642.54 3379.29 622.585C3385.52 603.217 3391.75 583.262 3397.41 564.48C3403.64 545.112 3409.87 526.918 3416.1 510.484L3488.02 734.686L3541.82 891.392C3547.48 908.413 3553.71 924.846 3559.37 941.28C3565.6 957.713 3567.86 965.134 3574.09 981.567C3576.36 988.024 3578.88 992.834 3589.2 999.814C3599.52 1006.79 3615.08 1009.36 3622.44 1009.36H3730.88C3739.38 1009.36 3750.44 1009.36 3755.32 1000.75C3760.21 992.149 3757.59 985.399 3755.32 978.943Z" fill="#008041"/>
<path d="M2311.82 851.663C2305.17 842.983 2288.32 841.54 2283.22 841.54H2038.36V307.448C2038.36 300.992 2034.56 291.777 2029.46 288.256C2025.5 284.147 2014.95 281 2009.85 281H1883.17C1875.81 281 1867.86 283.175 1862.36 288.873C1856.86 294.572 1854.88 301.579 1854.88 307.448V975.32C1854.88 997.249 1873.45 1009.36 1886.47 1009.36H2287.11C2293.34 1009.36 2307.03 1008.38 2312.91 1000.55C2318.78 992.721 2319.81 987.046 2319.81 981.177V875.03C2319.81 867.312 2318.48 860.343 2311.82 851.663Z" fill="#008041"/>
<path d="M2929.59 851.663C2922.94 842.983 2906.09 841.54 2900.99 841.54H2656.12V307.448C2656.12 300.992 2652.33 291.777 2647.23 288.256C2643.27 284.147 2632.71 281 2627.62 281H2500.94C2493.58 281 2485.63 283.175 2480.13 288.873C2474.63 294.572 2472.64 301.579 2472.64 307.448V975.32C2472.64 997.249 2491.21 1009.36 2504.24 1009.36H2904.88C2911.11 1009.36 2924.8 1008.38 2930.67 1000.55C2936.54 992.721 2937.58 987.046 2937.58 981.177V875.03C2937.58 867.312 2936.24 860.343 2929.59 851.663Z" fill="#008041"/>
<path d="M940.708 955.328L737.242 637.256C736.675 637.843 736.675 637.843 735.543 639.017C687.973 680.688 633.608 707.686 580.941 725.881C596.798 750.531 611.522 772.247 624.547 794.55C638.138 816.852 651.163 837.981 664.188 859.11C677.78 881.413 690.238 902.542 704.396 923.671C717.987 945.974 733.844 967.689 750.267 991.753C753.664 997.622 758.195 1001.73 762.725 1004.67C768.388 1008.19 773.485 1009.36 778.582 1009.36H919.407C926.769 1009.36 939.908 1006.84 945.114 996.801C955.897 976 943.539 961.197 940.708 955.328Z" fill="#008041"/>
<path d="M521.483 572.11V321.642C521.483 320.485 521.228 318.664 520.81 316.454C517.438 298.617 502.811 284.835 484.939 281.652C482.672 281.249 480.887 281 479.93 281H377.288C376.868 281 376.351 281.029 375.753 281.084C355.9 282.903 339.801 299.836 338.073 319.698C338.025 320.244 338 320.701 338 321.055V586.196V748.771V969.306C338 995.375 363.696 1008.77 377.854 1008.77H479.93C494.654 1008.77 520.917 991.566 520.917 969.306V740.554L521.483 572.11Z" fill="#008041"/>
<path d="M886.757 322.229C881.094 463.088 822.765 559.785 737.819 637.257C737.253 637.844 737.253 637.844 736.12 639.018C688.55 680.689 634.185 707.687 581.519 725.882H580.953C561.132 731.751 541.311 736.446 522.057 740.554C474.487 750.532 431.448 752.88 396.337 752.88C371.986 752.88 352.166 751.119 338.574 749.358V586.783C360.66 588.543 441.075 594.999 521.491 572.11C561.132 561.545 599.641 544.525 631.354 516.353C631.92 515.766 631.92 515.766 633.053 514.592C684.586 468.226 724.228 413.201 728.758 320.468C728.758 308.73 735.724 281 764.455 281C793.186 281 846.903 281 846.903 281C875.691 281 886.757 309.904 886.757 322.229Z" fill="url(#paint0_linear_403_370)"/>
<defs>
<linearGradient id="paint0_linear_403_370" x1="338.253" y1="516.994" x2="886.512" y2="516.994" gradientUnits="userSpaceOnUse">
<stop stop-color="#C67D29"/>
<stop offset="0.2865" stop-color="white"/>
<stop offset="0.5056" stop-color="#FDDC60"/>
<stop offset="1" stop-color="#BD6828"/>
</linearGradient>
</defs>
</svg>
